#define 1588065483801_width 96
#define 1588065483801_height 96
static char 1588065483801_bits[] = {
  0xFF, 0xFF, 0xFF, 0xFF, 0x1F, 0x00, 0x00, 0xF8, 0xFF, 0xFF, 0xFF, 0xFF, 
  0xFF, 0xFF, 0xFF, 0xFF, 0x03, 0x00, 0x00, 0xC0, 0xFF, 0xFF, 0xFF, 0xFF, 
  0xFF, 0xFF, 0xFF, 0x7F, 0x00, 0x00, 0x00, 0x00, 0xFE, 0xFF, 0xFF, 0xFF, 
  0xFF, 0xFF, 0xFF, 0x0F, 0x00, 0x00, 0x00, 0x00, 0xF0, 0xFF, 0xFF, 0xFF, 
  0xFF, 0xFF, 0xFF, 0x03, 0x00, 0x00, 0x00, 0x00, 0xC0, 0xFF, 0xFF, 0xFF, 
  0xFF, 0xFF, 0xFF, 0x00, 0x00, 0x00, 0x00, 0x00, 0x00, 0xFF, 0xFF, 0xFF, 
  0xFF, 0xFF, 0x7F, 0x00, 0x00, 0x00, 0x00, 0x00, 0x00, 0xFE, 0xFF, 0xFF, 
  0xFF, 0xFF, 0x1F, 0x00, 0x00, 0x00, 0x00, 0x00, 0x00, 0xF8, 0xFF, 0xFF, 
  0xFF, 0xFF, 0x0F, 0x00, 0x00, 0x00, 0x00, 0x00, 0x00, 0xF0, 0xFF, 0xFF, 
  0xFF, 0xFF, 0x03, 0x00, 0x00, 0x00, 0x00, 0x00, 0x00, 0xC0, 0xFF, 0xFF, 
  0xFF, 0xFF, 0x01, 0x00, 0x00, 0x00, 0x00, 0x00, 0x00, 0x80, 0xFF, 0xFF, 
  0xFF, 0xFF, 0x00, 0x00, 0x00, 0x00, 0x00, 0x00, 0x00, 0x00, 0xFF, 0xFF, 
  0xFF, 0x7F, 0x00, 0x00, 0x00, 0x00, 0x00, 0x00, 0x00, 0x00, 0xFE, 0xFF, 
  0xFF, 0x3F, 0x00, 0x00, 0x00, 0x00, 0x00, 0x00, 0x00, 0x00, 0xFC, 0xFF, 
  0xFF, 0x1F, 0x00, 0x00, 0x00, 0x00, 0x00, 0x00, 0x00, 0x00, 0xF8, 0xFF, 
  0xFF, 0x0F, 0x00, 0x00, 0x00, 0x00, 0x00, 0x00, 0x00, 0x00, 0xF0, 0xFF, 
  0xFF, 0x07, 0x00, 0x00, 0x00, 0x00, 0x00, 0x00, 0x00, 0x00, 0xE0, 0xFF, 
  0xFF, 0x03, 0x00, 0x00, 0x00, 0x00, 0x00, 0x00, 0x00, 0x00, 0xC0, 0xFF, 
  0xFF, 0x01, 0x00, 0x00, 0x00, 0x00, 0x00, 0x00, 0x00, 0x00, 0x80, 0xFF, 
  0xFF, 0x01, 0x00, 0x00, 0x00, 0x00, 0x00, 0x00, 0x00, 0x00, 0x80, 0xFF, 
  0xFF, 0x00, 0x00, 0x00, 0x00, 0x00, 0x00, 0x00, 0x00, 0x00, 0x00, 0xFF, 
  0x7F, 0x00, 0x00, 0x00, 0x00, 0x00, 0x00, 0x00, 0x00, 0x00, 0x00, 0xFE, 
  0x7F, 0x00, 0x00, 0x00, 0x00, 0x00, 0x00, 0x00, 0x00, 0x00, 0x00, 0xFE, 
  0x3F, 0x00, 0x00, 0x00, 0x00, 0x00, 0x00, 0x00, 0x00, 0x00, 0x00, 0xFC, 
  0x1F, 0x00, 0x00, 0x00, 0x00, 0x00, 0x00, 0x00, 0x00, 0x00, 0x00, 0xF8, 
  0x1F, 0x00, 0x00, 0x00, 0x00, 0x00, 0x00, 0x00, 0x00, 0x00, 0x00, 0xF8, 
  0x0F, 0x00, 0x00, 0x00, 0x00, 0x00, 0x00, 0x00, 0x00, 0x00, 0x00, 0xF0, 
  0x0F, 0x00, 0x00, 0x00, 0x00, 0x00, 0x00, 0x00, 0x00, 0x00, 0x00, 0xF0, 
  0x07, 0x00, 0x00, 0x00, 0x00, 0x00, 0x00, 0x00, 0x00, 0x00, 0x00, 0xE0, 
  0x07, 0x00, 0x00, 0x40, 0xE6, 0xFB, 0xBE, 0x6D, 0x03, 0x00, 0x00, 0xE0, 
  0x07, 0x00, 0x00, 0xC0, 0xFF, 0x66, 0xF6, 0xFF, 0x01, 0x00, 0x00, 0xE0, 
  0x03, 0x00, 0x00, 0xE0, 0x6F, 0xFF, 0x6F, 0xB7, 0x07, 0x00, 0x00, 0xC0, 
  0x03, 0x00, 0x00, 0xA0, 0xFE, 0xFB, 0xFF, 0x7F, 0x05, 0x00, 0x00, 0xC0, 
  0x03, 0x00, 0x00, 0xE0, 0x09, 0x89, 0x14, 0xE8, 0x07, 0x00, 0x00, 0xC0, 
  0x01, 0x00, 0x00, 0xC0, 0x63, 0x26, 0x92, 0x91, 0x06, 0x00, 0x00, 0x80, 
  0x01, 0x00, 0x00, 0xA0, 0x89, 0x92, 0x29, 0xA6, 0x07, 0x00, 0x00, 0x80, 
  0x01, 0x00, 0x00, 0xA0, 0x33, 0x1C, 0x54, 0x78, 0x03, 0x00, 0x00, 0x80, 
  0x00, 0x00, 0x00, 0xE0, 0x8D, 0xC1, 0x01, 0xD3, 0x07, 0x00, 0x00, 0x00, 
  0x00, 0x00, 0x00, 0xA0, 0x02, 0x04, 0xC2, 0xAE, 0x01, 0x00, 0x00, 0x00, 
  0x00, 0x00, 0x00, 0xE0, 0x95, 0x21, 0x18, 0xDA, 0x07, 0x00, 0x00, 0x00, 
  0x00, 0x00, 0x00, 0xC0, 0x45, 0xD5, 0x29, 0xC9, 0x05, 0x00, 0x00, 0x00, 
  0x00, 0x00, 0x00, 0xA0, 0x25, 0x00, 0xC2, 0xBE, 0x07, 0x00, 0x00, 0x00, 
  0x00, 0x00, 0x00, 0xA0, 0x41, 0xA4, 0x56, 0xD3, 0x06, 0x00, 0x00, 0x00, 
  0x00, 0x00, 0x00, 0xE0, 0x1B, 0x45, 0x70, 0xAD, 0x07, 0x00, 0x00, 0x00, 
  0x00, 0x00, 0x00, 0xC0, 0x89, 0x66, 0xD9, 0x79, 0x05, 0x00, 0x00, 0x00, 
  0x00, 0x00, 0x00, 0x60, 0xA9, 0x10, 0x9A, 0xD6, 0x07, 0x00, 0x00, 0x00, 
  0x00, 0x00, 0x00, 0xE0, 0x33, 0x89, 0x66, 0xAF, 0x02, 0x00, 0x00, 0x00, 
  0x00, 0x00, 0x00, 0xE0, 0x89, 0x66, 0xBD, 0xD9, 0x07, 0x00, 0x00, 0x00, 
  0x00, 0x00, 0x00, 0x40, 0x99, 0x28, 0xD6, 0xEE, 0x05, 0x00, 0x00, 0x00, 
  0x00, 0x00, 0x00, 0xE0, 0x23, 0xC3, 0x6D, 0x5A, 0x07, 0x00, 0x00, 0x00, 
  0x00, 0x00, 0x00, 0x60, 0xA5, 0x9A, 0x69, 0xF3, 0x06, 0x00, 0x00, 0x00, 
  0x00, 0x00, 0x00, 0xE0, 0x8B, 0x68, 0xD6, 0x4D, 0x07, 0x00, 0x00, 0x00, 
  0x00, 0x00, 0x00, 0xC0, 0x2B, 0xD9, 0x97, 0xBB, 0x05, 0x00, 0x00, 0x00, 
  0x00, 0x00, 0x00, 0x60, 0x60, 0x9A, 0x75, 0xEC, 0x07, 0x00, 0x00, 0x00, 
  0x00, 0x00, 0x00, 0xC0, 0x07, 0xE6, 0xCD, 0xA7, 0x02, 0x00, 0x00, 0x00, 
  0x00, 0x00, 0x00, 0xE0, 0xD5, 0x3C, 0xB6, 0xD9, 0x07, 0x00, 0x00, 0x00, 
  0x00, 0x00, 0x00, 0xA0, 0xB1, 0x9B, 0x66, 0xEE, 0x06, 0x00, 0x00, 0x00, 
  0x00, 0x00, 0x00, 0xE0, 0x85, 0xE6, 0xDB, 0x5A, 0x07, 0x00, 0x00, 0x00, 
  0x00, 0x00, 0x00, 0xE0, 0x5D, 0x75, 0x5A, 0x7B, 0x07, 0x00, 0x00, 0x00, 
  0x01, 0x00, 0x00, 0xA0, 0xA1, 0x9D, 0x76, 0xC6, 0x06, 0x00, 0x00, 0x80, 
  0x01, 0x00, 0x00, 0xA0, 0x73, 0xE2, 0xDB, 0xBB, 0x05, 0x00, 0x00, 0x80, 
  0x01, 0x00, 0x00, 0xE0, 0x9D, 0x3F, 0x99, 0xEC, 0x07, 0x00, 0x00, 0x80, 
  0x03, 0x00, 0x00, 0xC0, 0xEA, 0xA5, 0xAE, 0x97, 0x02, 0x00, 0x00, 0xC0, 
  0x03, 0x00, 0x00, 0x60, 0xBF, 0xFD, 0xF7, 0xF5, 0x07, 0x00, 0x00, 0xC0, 
  0x03, 0x00, 0x00, 0xE0, 0xDB, 0x6F, 0xFF, 0xF6, 0x01, 0x00, 0x00, 0xC0, 
  0x07, 0x00, 0x00, 0x80, 0x7F, 0xF6, 0x9A, 0x7F, 0x07, 0x00, 0x00, 0xE0, 
  0x07, 0x00, 0x00, 0xC0, 0xF5, 0x7E, 0xEF, 0xE7, 0x03, 0x00, 0x00, 0xE0, 
  0x07, 0x00, 0x00, 0x00, 0x00, 0x00, 0x00, 0x00, 0x00, 0x00, 0x00, 0xE0, 
  0x0F, 0x00, 0x00, 0x00, 0x00, 0x00, 0x00, 0x00, 0x00, 0x00, 0x00, 0xF0, 
  0x0F, 0x00, 0x00, 0x00, 0x00, 0x00, 0x00, 0x00, 0x00, 0x00, 0x00, 0xF0, 
  0x1F, 0x00, 0x00, 0x00, 0x00, 0x00, 0x00, 0x00, 0x00, 0x00, 0x00, 0xF8, 
  0x1F, 0x00, 0x00, 0x00, 0x00, 0x00, 0x00, 0x00, 0x00, 0x00, 0x00, 0xF8, 
  0x3F, 0x00, 0x00, 0x00, 0x00, 0x00, 0x00, 0x00, 0x00, 0x00, 0x00, 0xFC, 
  0x7F, 0x00, 0x00, 0x00, 0x00, 0x00, 0x00, 0x00, 0x00, 0x00, 0x00, 0xFE, 
  0x7F, 0x00, 0x00, 0x00, 0x00, 0x00, 0x00, 0x00, 0x00, 0x00, 0x00, 0xFE, 
  0xFF, 0x00, 0x00, 0x00, 0x00, 0x00, 0x00, 0x00, 0x00, 0x00, 0x00, 0xFF, 
  0xFF, 0x01, 0x00, 0x00, 0x00, 0x00, 0x00, 0x00, 0x00, 0x00, 0x80, 0xFF, 
  0xFF, 0x01, 0x00, 0x00, 0x00, 0x00, 0x00, 0x00, 0x00, 0x00, 0x80, 0xFF, 
  0xFF, 0x03, 0x00, 0x00, 0x00, 0x00, 0x00, 0x00, 0x00, 0x00, 0xC0, 0xFF, 
  0xFF, 0x07, 0x00, 0x00, 0x00, 0x00, 0x00, 0x00, 0x00, 0x00, 0xE0, 0xFF, 
  0xFF, 0x0F, 0x00, 0x00, 0x00, 0x00, 0x00, 0x00, 0x00, 0x00, 0xF0, 0xFF, 
  0xFF, 0x1F, 0x00, 0x00, 0x00, 0x00, 0x00, 0x00, 0x00, 0x00, 0xF8, 0xFF, 
  0xFF, 0x3F, 0x00, 0x00, 0x00, 0x00, 0x00, 0x00, 0x00, 0x00, 0xFC, 0xFF, 
  0xFF, 0x7F, 0x00, 0x00, 0x00, 0x00, 0x00, 0x00, 0x00, 0x00, 0xFE, 0xFF, 
  0xFF, 0xFF, 0x00, 0x00, 0x00, 0x00, 0x00, 0x00, 0x00, 0x00, 0xFF, 0xFF, 
  0xFF, 0xFF, 0x01, 0x00, 0x00, 0x00, 0x00, 0x00, 0x00, 0x80, 0xFF, 0xFF, 
  0xFF, 0xFF, 0x03, 0x00, 0x00, 0x00, 0x00, 0x00, 0x00, 0xC0, 0xFF, 0xFF, 
  0xFF, 0xFF, 0x0F, 0x00, 0x00, 0x00, 0x00, 0x00, 0x00, 0xF0, 0xFF, 0xFF, 
  0xFF, 0xFF, 0x1F, 0x00, 0x00, 0x00, 0x00, 0x00, 0x00, 0xF8, 0xFF, 0xFF, 
  0xFF, 0xFF, 0x7F, 0x00, 0x00, 0x00, 0x00, 0x00, 0x00, 0xFE, 0xFF, 0xFF, 
  0xFF, 0xFF, 0xFF, 0x00, 0x00, 0x00, 0x00, 0x00, 0x00, 0xFF, 0xFF, 0xFF, 
  0xFF, 0xFF, 0xFF, 0x03, 0x00, 0x00, 0x00, 0x00, 0xC0, 0xFF, 0xFF, 0xFF, 
  0xFF, 0xFF, 0xFF, 0x0F, 0x00, 0x00, 0x00, 0x00, 0xF0, 0xFF, 0xFF, 0xFF, 
  0xFF, 0xFF, 0xFF, 0x7F, 0x00, 0x00, 0x00, 0x00, 0xFE, 0xFF, 0xFF, 0xFF, 
  0xFF, 0xFF, 0xFF, 0xFF, 0x03, 0x00, 0x00, 0xC0, 0xFF, 0xFF, 0xFF, 0xFF, 
  0xFF, 0xFF, 0xFF, 0xFF, 0x1F, 0x00, 0x00, 0xF8, 0xFF, 0xFF, 0xFF, 0xFF, 
  };
