#define 1588156621445_width 96
#define 1588156621445_height 96
static char 1588156621445_bits[] = {
  0xFF, 0xFF, 0xFF, 0xFF, 0x1F, 0x00, 0x00, 0xF8, 0xFF, 0xFF, 0xFF, 0xFF, 
  0xFF, 0xFF, 0xFF, 0xFF, 0x01, 0x00, 0x00, 0x80, 0xFF, 0xFF, 0xFF, 0xFF, 
  0xFF, 0xFF, 0xFF, 0x7F, 0x00, 0x00, 0x00, 0x00, 0xFE, 0xFF, 0xFF, 0xFF, 
  0xFF, 0xFF, 0xFF, 0x0F, 0x00, 0x00, 0x00, 0x00, 0xF0, 0xFF, 0xFF, 0xFF, 
  0xFF, 0xFF, 0xFF, 0x03, 0x00, 0x00, 0x00, 0x00, 0xC0, 0xFF, 0xFF, 0xFF, 
  0xFF, 0xFF, 0xFF, 0x00, 0x00, 0x00, 0x00, 0x00, 0x00, 0xFF, 0xFF, 0xFF, 
  0xFF, 0xFF, 0x3F, 0x00, 0x00, 0x00, 0x00, 0x00, 0x00, 0xFC, 0xFF, 0xFF, 
  0xFF, 0xFF, 0x1F, 0x00, 0x00, 0x00, 0x00, 0x00, 0x00, 0xF8, 0xFF, 0xFF, 
  0xFF, 0xFF, 0x07, 0x00, 0x00, 0x00, 0x00, 0x00, 0x00, 0xE0, 0xFF, 0xFF, 
  0xFF, 0xFF, 0x03, 0x00, 0x00, 0x00, 0x00, 0x00, 0x00, 0xC0, 0xFF, 0xFF, 
  0xFF, 0xFF, 0x01, 0x00, 0x00, 0x00, 0x00, 0x00, 0x00, 0x80, 0xFF, 0xFF, 
  0xFF, 0xFF, 0x00, 0x00, 0x00, 0x00, 0x00, 0x00, 0x00, 0x00, 0xFF, 0xFF, 
  0xFF, 0x7F, 0x00, 0x00, 0x00, 0x00, 0x00, 0x00, 0x00, 0x00, 0xFE, 0xFF, 
  0xFF, 0x1F, 0x00, 0x00, 0x00, 0x00, 0x00, 0x00, 0x00, 0x00, 0xF8, 0xFF, 
  0xFF, 0x1F, 0x00, 0x00, 0x00, 0x00, 0x00, 0x00, 0x00, 0x00, 0xF8, 0xFF, 
  0xFF, 0x0F, 0x00, 0x00, 0x00, 0x00, 0x00, 0x00, 0x00, 0x00, 0xF0, 0xFF, 
  0xFF, 0x07, 0x00, 0x00, 0x00, 0x00, 0x00, 0x00, 0x00, 0x00, 0xE0, 0xFF, 
  0xFF, 0x03, 0x00, 0x00, 0x00, 0x00, 0x00, 0x00, 0x00, 0x00, 0xC0, 0xFF, 
  0xFF, 0x01, 0x00, 0x00, 0x00, 0x00, 0x00, 0x00, 0x00, 0x00, 0x80, 0xFF, 
  0xFF, 0x00, 0x00, 0x00, 0x00, 0x00, 0x00, 0x00, 0x00, 0x00, 0x00, 0xFF, 
  0xFF, 0x00, 0x00, 0x00, 0x00, 0x00, 0x00, 0x00, 0x00, 0x00, 0x00, 0xFF, 
  0x7F, 0x00, 0x00, 0x00, 0x00, 0x00, 0x00, 0x00, 0x00, 0x00, 0x00, 0xFE, 
  0x3F, 0x00, 0x00, 0x00, 0x00, 0x00, 0x00, 0x00, 0x00, 0x00, 0x00, 0xFC, 
  0x3F, 0x00, 0x00, 0x00, 0x00, 0x00, 0x00, 0x00, 0x00, 0x00, 0x00, 0xFC, 
  0x1F, 0x00, 0x00, 0x00, 0x78, 0x00, 0x00, 0x0E, 0x00, 0x00, 0x00, 0xF8, 
  0x1F, 0x00, 0x00, 0x00, 0x5C, 0x00, 0x20, 0x7C, 0x00, 0x00, 0x00, 0xF8, 
  0x0F, 0x00, 0x00, 0x00, 0x37, 0x00, 0x40, 0x6E, 0x00, 0x00, 0x00, 0xF0, 
  0x0F, 0x00, 0x00, 0xC0, 0x7D, 0x00, 0x00, 0xF6, 0x03, 0x00, 0x00, 0xF0, 
  0x07, 0x00, 0x00, 0xE0, 0x2F, 0x00, 0x00, 0xBE, 0x03, 0x00, 0x00, 0xE0, 
  0x07, 0x00, 0x00, 0x90, 0x7D, 0x04, 0x00, 0xF4, 0x0F, 0x00, 0x00, 0xE0, 
  0x07, 0x00, 0x00, 0xB8, 0x57, 0x00, 0x00, 0x7E, 0x09, 0x00, 0x00, 0xE0, 
  0x03, 0x00, 0x00, 0xF8, 0x7D, 0x00, 0x00, 0xEE, 0x3F, 0x00, 0x00, 0xC0, 
  0x03, 0x00, 0x00, 0xFE, 0x7F, 0x04, 0x00, 0xEE, 0x5D, 0x00, 0x00, 0xC0, 
  0x01, 0x00, 0x00, 0xDD, 0x0E, 0x00, 0x00, 0x7C, 0x7F, 0x00, 0x00, 0x80, 
  0x01, 0x00, 0x00, 0x95, 0x03, 0x00, 0x00, 0xF0, 0xFE, 0x00, 0x00, 0x80, 
  0x01, 0x00, 0x80, 0xFF, 0x47, 0x00, 0x80, 0x82, 0xD7, 0x00, 0x00, 0x80, 
  0x01, 0x00, 0x40, 0xFF, 0x01, 0x00, 0x00, 0xC1, 0xED, 0x03, 0x00, 0x80, 
  0x00, 0x00, 0xC0, 0xBD, 0x93, 0x04, 0x00, 0x08, 0x7F, 0x07, 0x00, 0x00, 
  0x00, 0x00, 0xC0, 0x5A, 0x04, 0x00, 0x00, 0x90, 0xFF, 0x02, 0x00, 0x00, 
  0x00, 0x00, 0xA0, 0xFF, 0x20, 0x00, 0x00, 0x01, 0xEC, 0x07, 0x00, 0x00, 
  0x00, 0x00, 0x60, 0x3F, 0x40, 0x00, 0x40, 0x00, 0x7E, 0x17, 0x00, 0x00, 
  0x00, 0x00, 0xE0, 0x9B, 0x02, 0x01, 0x00, 0x90, 0xF8, 0x07, 0x00, 0x00, 
  0x00, 0x00, 0xF0, 0x19, 0x15, 0x00, 0x00, 0x08, 0xEA, 0x8E, 0x00, 0x00, 
  0x00, 0x00, 0xB0, 0x1F, 0x80, 0x00, 0x80, 0x21, 0xB8, 0x1F, 0x00, 0x00, 
  0x00, 0x00, 0xE0, 0x1B, 0x08, 0x00, 0x00, 0x02, 0xFA, 0x0F, 0x00, 0x00, 
  0x00, 0x00, 0x78, 0x2F, 0x00, 0x01, 0x00, 0x20, 0xD0, 0x59, 0x00, 0x00, 
  0x00, 0x00, 0xF8, 0x4D, 0x01, 0x00, 0x00, 0x68, 0x90, 0x1D, 0x04, 0x00, 
  0x00, 0x00, 0xB0, 0x0F, 0x94, 0x04, 0x20, 0x02, 0xF1, 0x5F, 0x20, 0x00, 
  0x00, 0x00, 0xD8, 0x07, 0x40, 0x00, 0x00, 0x44, 0xF4, 0x1F, 0x21, 0x00, 
  0x00, 0x00, 0x78, 0x4D, 0x02, 0x02, 0x40, 0x01, 0xA0, 0x5D, 0x08, 0x00, 
  0x00, 0x00, 0xF8, 0xA5, 0x16, 0x28, 0xA0, 0x04, 0xD1, 0x59, 0x00, 0x00, 
  0x00, 0x00, 0xD0, 0x0F, 0x40, 0x02, 0x01, 0x90, 0xF8, 0x1F, 0x50, 0x00, 
  0x00, 0x00, 0xF8, 0x0F, 0x22, 0x84, 0x10, 0x84, 0xD2, 0x1B, 0x49, 0x00, 
  0x00, 0x00, 0xB8, 0x06, 0x00, 0x10, 0x80, 0x00, 0x70, 0x5E, 0x00, 0x00, 
  0x00, 0x00, 0x90, 0x8B, 0x08, 0x00, 0x00, 0x01, 0xE0, 0x1B, 0x10, 0x00, 
  0x00, 0x00, 0xF8, 0x1F, 0x91, 0x48, 0x29, 0x44, 0xF1, 0x1F, 0x84, 0x08, 
  0x00, 0x00, 0xF0, 0x2F, 0x90, 0x44, 0x40, 0x20, 0xB8, 0x1E, 0x02, 0x52, 
  0x00, 0x00, 0x50, 0x9B, 0x00, 0x20, 0x02, 0x06, 0xE9, 0x47, 0x28, 0x00, 
  0x00, 0x00, 0xD0, 0x19, 0x01, 0x4A, 0x16, 0x52, 0xB8, 0x0F, 0x62, 0x00, 
  0x01, 0x00, 0xF0, 0x3F, 0x48, 0x00, 0x40, 0x00, 0xF4, 0x6E, 0x00, 0xA1, 
  0x01, 0x00, 0xE0, 0x3F, 0x00, 0x12, 0x22, 0x41, 0xBC, 0x27, 0x21, 0x89, 
  0x01, 0x00, 0xC0, 0x6D, 0x52, 0x80, 0x00, 0x08, 0xFE, 0x07, 0x08, 0xA0, 
  0x01, 0x00, 0x60, 0xF9, 0x04, 0x00, 0x09, 0x10, 0xE6, 0x17, 0x80, 0x80, 
  0x03, 0x00, 0xC0, 0xDF, 0x22, 0x09, 0x90, 0x80, 0xBF, 0x83, 0x10, 0xE2, 
  0x03, 0x00, 0x00, 0x77, 0x91, 0x08, 0x90, 0x88, 0xFD, 0x43, 0x02, 0xC4, 
  0x07, 0x00, 0x80, 0xFF, 0x01, 0x90, 0x00, 0xC1, 0xA7, 0x21, 0x40, 0xE1, 
  0x07, 0x00, 0x00, 0xFF, 0x07, 0x00, 0x01, 0xF0, 0xFF, 0x41, 0xA8, 0xE4, 
  0x07, 0x00, 0x00, 0x76, 0x5F, 0x44, 0x48, 0xB4, 0xDD, 0x04, 0x01, 0xE0, 
  0x0F, 0x00, 0x00, 0x6E, 0x56, 0x21, 0x01, 0xFC, 0x7E, 0x40, 0x10, 0xF4, 
  0x0F, 0x00, 0x00, 0xF8, 0x7F, 0x41, 0x90, 0xDD, 0x27, 0x04, 0x80, 0xF1, 
  0x1F, 0x00, 0x00, 0xF8, 0xFF, 0x07, 0xD8, 0x9F, 0xBF, 0x1A, 0x00, 0xF8, 
  0x1F, 0x00, 0x00, 0xB0, 0xED, 0xFD, 0xF7, 0xFB, 0x0E, 0x80, 0x29, 0xF8, 
  0x3F, 0x00, 0x00, 0xC0, 0x77, 0xDE, 0xF7, 0xFD, 0x2B, 0x10, 0x21, 0xFE, 
  0x3F, 0x00, 0x00, 0x80, 0xFE, 0x77, 0x5F, 0xBF, 0x03, 0x05, 0x08, 0xFC, 
  0x7F, 0x00, 0x00, 0x80, 0xE7, 0xFF, 0xFF, 0xD6, 0x01, 0x00, 0x80, 0xFE, 
  0xFF, 0x00, 0x00, 0x00, 0x7E, 0xEE, 0xB7, 0x7F, 0x94, 0x12, 0x10, 0xFF, 
  0xFF, 0x00, 0x00, 0x00, 0x68, 0xF7, 0xFE, 0x57, 0x08, 0x84, 0x01, 0xFF, 
  0xFF, 0x01, 0x00, 0x00, 0xF8, 0x6F, 0x9B, 0x1F, 0x01, 0x12, 0xE8, 0xFF, 
  0xFF, 0x03, 0x00, 0x00, 0xC0, 0xFF, 0xFF, 0x00, 0x10, 0x04, 0xC0, 0xFF, 
  0xFF, 0x07, 0x00, 0x00, 0x00, 0xD0, 0x2A, 0x44, 0x84, 0x40, 0xE4, 0xFF, 
  0xFF, 0x0F, 0x00, 0x00, 0x00, 0x20, 0x00, 0x01, 0x02, 0x21, 0xF0, 0xFF, 
  0xFF, 0x1F, 0x00, 0x00, 0x00, 0x04, 0x42, 0x28, 0x20, 0x08, 0xF9, 0xFF, 
  0xFF, 0x1F, 0x00, 0x00, 0x00, 0x12, 0x68, 0x80, 0x48, 0x80, 0xF8, 0xFF, 
  0xFF, 0x7F, 0x00, 0x00, 0x00, 0x80, 0x02, 0x21, 0x21, 0x10, 0xFF, 0xFF, 
  0xFF, 0xFF, 0x00, 0x00, 0x00, 0x00, 0x44, 0x08, 0x08, 0x01, 0xFF, 0xFF, 
  0xFF, 0xFF, 0x01, 0x00, 0x00, 0x00, 0x00, 0x40, 0x40, 0xE8, 0xFF, 0xFF, 
  0xFF, 0xFF, 0x03, 0x00, 0x00, 0x10, 0x10, 0x60, 0xA0, 0xC0, 0xFF, 0xFF, 
  0xFF, 0xFF, 0x07, 0x00, 0x00, 0x80, 0x89, 0x04, 0x08, 0xE4, 0xFF, 0xFF, 
  0xFF, 0xFF, 0x1F, 0x00, 0x00, 0x00, 0x00, 0x11, 0x01, 0xF9, 0xFF, 0xFF, 
  0xFF, 0xFF, 0x3F, 0x00, 0x00, 0x00, 0x68, 0x80, 0x58, 0xFC, 0xFF, 0xFF, 
  0xFF, 0xFF, 0xFF, 0x00, 0x00, 0x00, 0x20, 0x00, 0x00, 0xFF, 0xFF, 0xFF, 
  0xFF, 0xFF, 0xFF, 0x03, 0x00, 0x00, 0x02, 0x21, 0xD2, 0xFF, 0xFF, 0xFF, 
  0xFF, 0xFF, 0xFF, 0x0F, 0x00, 0x00, 0x28, 0x48, 0xF0, 0xFF, 0xFF, 0xFF, 
  0xFF, 0xFF, 0xFF, 0x7F, 0x00, 0x00, 0x00, 0x01, 0xFF, 0xFF, 0xFF, 0xFF, 
  0xFF, 0xFF, 0xFF, 0xFF, 0x01, 0x00, 0x80, 0x90, 0xFF, 0xFF, 0xFF, 0xFF, 
  0xFF, 0xFF, 0xFF, 0xFF, 0x1F, 0x00, 0x00, 0xFA, 0xFF, 0xFF, 0xFF, 0xFF, 
  };
