#define 1587987289584_width 96
#define 1587987289584_height 96
static char 1587987289584_bits[] = {
  0xFF, 0xFF, 0xFF, 0xFF, 0x1F, 0x00, 0x01, 0xF8, 0xFF, 0xFF, 0xFF, 0xFF, 
  0xFF, 0xFF, 0xFF, 0xFF, 0x03, 0x02, 0x40, 0xC0, 0xFF, 0xFF, 0xFF, 0xFF, 
  0xFF, 0xFF, 0xFF, 0x7F, 0x48, 0x10, 0x00, 0x00, 0xFE, 0xFF, 0xFF, 0xFF, 
  0xFF, 0xFF, 0xFF, 0x0F, 0x00, 0x00, 0x82, 0x14, 0xF0, 0xFF, 0xFF, 0xFF, 
  0xFF, 0xFF, 0xFF, 0x03, 0x80, 0x04, 0x00, 0x00, 0xC2, 0xFF, 0xFF, 0xFF, 
  0xFF, 0xFF, 0xFF, 0x00, 0x00, 0x00, 0x00, 0x02, 0x00, 0xFF, 0xFF, 0xFF, 
  0xFF, 0xFF, 0x7F, 0x00, 0x02, 0x80, 0x14, 0x00, 0x80, 0xFE, 0xFF, 0xFF, 
  0xFF, 0xFF, 0x1F, 0x14, 0x04, 0x08, 0x00, 0x20, 0x10, 0xF8, 0xFF, 0xFF, 
  0xFF, 0xFF, 0x0F, 0x00, 0x10, 0x00, 0x24, 0x10, 0x02, 0xF0, 0xFF, 0xFF, 
  0xFF, 0xFF, 0x03, 0x48, 0x00, 0x08, 0x00, 0x00, 0x00, 0xC0, 0xFF, 0xFF, 
  0xFF, 0xFF, 0x01, 0x00, 0x08, 0x20, 0x00, 0x21, 0x20, 0x84, 0xFF, 0xFF, 
  0xFF, 0xFF, 0x28, 0x00, 0x00, 0x00, 0x00, 0x00, 0x00, 0x02, 0xFF, 0xFF, 
  0xFF, 0x7F, 0x00, 0x21, 0x40, 0x08, 0x00, 0x08, 0x08, 0x10, 0xFE, 0xFF, 
  0xFF, 0x3F, 0x20, 0x00, 0x20, 0x01, 0x42, 0x00, 0x40, 0x00, 0xFC, 0xFF, 
  0xFF, 0x1F, 0x00, 0x00, 0x00, 0x80, 0x81, 0x80, 0x00, 0x00, 0xF8, 0xFF, 
  0xFF, 0x2F, 0x02, 0x02, 0x02, 0x00, 0x00, 0x00, 0x04, 0x04, 0xF4, 0xFF, 
  0xFF, 0x07, 0x01, 0x80, 0x04, 0x00, 0x10, 0x20, 0x80, 0x00, 0xE0, 0xFF, 
  0xFF, 0x03, 0x08, 0x10, 0x00, 0x01, 0x00, 0x00, 0x10, 0x80, 0xC0, 0xFF, 
  0xFF, 0x11, 0x80, 0x02, 0x00, 0x80, 0x00, 0x02, 0x02, 0x40, 0x82, 0xFF, 
  0xFF, 0x05, 0x00, 0x00, 0x00, 0x10, 0x08, 0x10, 0x00, 0x04, 0x84, 0xFF, 
  0xFF, 0x00, 0x80, 0x00, 0x00, 0x00, 0x80, 0x00, 0x00, 0x00, 0x00, 0xFF, 
  0x7F, 0x10, 0x00, 0x00, 0x00, 0x04, 0x20, 0x02, 0x00, 0x00, 0x00, 0xFE, 
  0x7F, 0x02, 0x02, 0x00, 0x00, 0x20, 0x00, 0x00, 0x00, 0x00, 0x08, 0xFE, 
  0x3F, 0x00, 0x04, 0x00, 0x00, 0x00, 0x02, 0x40, 0x00, 0x00, 0x10, 0xFC, 
  0x1F, 0x00, 0x00, 0x00, 0x00, 0x00, 0x00, 0x10, 0x00, 0x10, 0x00, 0xFC, 
  0x1F, 0x81, 0x00, 0x28, 0x00, 0x00, 0x01, 0x00, 0x00, 0x00, 0x10, 0xF8, 
  0x8F, 0x41, 0x08, 0x00, 0x00, 0x00, 0x80, 0x01, 0x00, 0x00, 0x10, 0xF0, 
  0x0F, 0x00, 0x00, 0x00, 0x00, 0x00, 0x10, 0x00, 0x00, 0x00, 0x01, 0xF8, 
  0x07, 0x00, 0x00, 0x08, 0x00, 0x00, 0x00, 0x00, 0x00, 0x00, 0x04, 0xE0, 
  0x07, 0x00, 0x00, 0x02, 0x00, 0x00, 0x04, 0x00, 0x00, 0x80, 0x00, 0xE0, 
  0x07, 0x00, 0x00, 0x80, 0x00, 0x80, 0x20, 0x00, 0x00, 0x40, 0x00, 0xE0, 
  0x13, 0x28, 0x01, 0x00, 0x00, 0x00, 0x00, 0x00, 0x00, 0x00, 0x80, 0xC2, 
  0x0B, 0x00, 0x00, 0x00, 0x00, 0x00, 0x00, 0x00, 0x00, 0x00, 0x10, 0xC8, 
  0x23, 0x14, 0x00, 0x00, 0x00, 0x00, 0x00, 0x00, 0x00, 0x20, 0x00, 0xC0, 
  0x01, 0x00, 0x00, 0x00, 0x00, 0x00, 0x01, 0x00, 0x00, 0x00, 0x21, 0x80, 
  0x01, 0x00, 0x00, 0x00, 0x04, 0x00, 0x00, 0x00, 0x00, 0x00, 0x00, 0x84, 
  0x41, 0x84, 0x00, 0x00, 0x00, 0x00, 0x00, 0x00, 0x10, 0x08, 0x08, 0x90, 
  0x00, 0x00, 0x00, 0x00, 0x00, 0x00, 0x00, 0x00, 0x00, 0x01, 0x00, 0x00, 
  0x04, 0x00, 0x08, 0x00, 0x00, 0x00, 0x00, 0x00, 0x01, 0x80, 0x80, 0x02, 
  0x80, 0x40, 0x00, 0x00, 0x00, 0x00, 0x08, 0x00, 0x00, 0x00, 0x00, 0x00, 
  0x10, 0x02, 0x00, 0x00, 0x00, 0x00, 0x00, 0x00, 0x40, 0x02, 0x00, 0x10, 
  0x00, 0x00, 0x10, 0x00, 0x00, 0x00, 0x00, 0x00, 0x20, 0x00, 0x81, 0x00, 
  0x01, 0x00, 0x00, 0x00, 0x00, 0x00, 0x00, 0x00, 0x00, 0x20, 0x42, 0x00, 
  0x20, 0x20, 0x01, 0x00, 0x00, 0x00, 0x00, 0x00, 0x01, 0x80, 0x00, 0x08, 
  0x08, 0x40, 0x01, 0x00, 0x00, 0x00, 0x00, 0x08, 0x00, 0x08, 0x00, 0x40, 
  0x00, 0x08, 0x20, 0x02, 0x00, 0x00, 0x00, 0x00, 0x01, 0x00, 0x00, 0x20, 
  0x80, 0x04, 0x10, 0x10, 0x00, 0x00, 0x00, 0x40, 0x20, 0x00, 0x00, 0x00, 
  0x00, 0x00, 0x00, 0x00, 0x00, 0x00, 0x00, 0x00, 0x40, 0x20, 0x24, 0x02, 
  0x00, 0x00, 0x00, 0x11, 0x00, 0x00, 0x00, 0x00, 0x08, 0x00, 0x40, 0x28, 
  0x81, 0x40, 0x00, 0x00, 0x40, 0xBA, 0x00, 0x00, 0x00, 0x24, 0x00, 0x00, 
  0x42, 0x00, 0x12, 0x00, 0x91, 0x42, 0x02, 0x00, 0x80, 0x00, 0x04, 0x00, 
  0x00, 0x08, 0x00, 0x02, 0x08, 0xA4, 0x01, 0x00, 0x00, 0x00, 0x01, 0x00, 
  0x00, 0x20, 0x02, 0x40, 0xC4, 0xA3, 0x02, 0x00, 0x00, 0x10, 0x10, 0x00, 
  0x00, 0x01, 0x00, 0x00, 0x14, 0x78, 0x00, 0x00, 0x00, 0x80, 0x00, 0x41, 
  0x00, 0x00, 0x80, 0x00, 0x52, 0xD4, 0x00, 0x00, 0x00, 0x01, 0x00, 0x82, 
  0x14, 0x10, 0x10, 0x14, 0x08, 0x2B, 0x00, 0x00, 0x00, 0x00, 0x04, 0x00, 
  0x02, 0x40, 0x02, 0x80, 0x51, 0x5A, 0x00, 0x00, 0x00, 0x01, 0x20, 0x00, 
  0x00, 0x00, 0x00, 0x28, 0x84, 0x65, 0x00, 0x00, 0x00, 0x00, 0x00, 0x20, 
  0x20, 0x02, 0x20, 0x40, 0x83, 0x3F, 0x00, 0x00, 0x00, 0x10, 0x02, 0x01, 
  0x41, 0x00, 0x00, 0x20, 0xA8, 0x62, 0x00, 0x00, 0x00, 0x80, 0x10, 0x80, 
  0x01, 0x10, 0x48, 0x29, 0x78, 0x3B, 0x00, 0x00, 0x00, 0x00, 0x00, 0x80, 
  0x01, 0x02, 0x00, 0xA0, 0x92, 0x06, 0x00, 0x00, 0x00, 0x00, 0x02, 0x81, 
  0x0B, 0x00, 0x00, 0x85, 0x69, 0x8D, 0x00, 0x00, 0x00, 0x00, 0x00, 0xE0, 
  0x13, 0x20, 0x04, 0x14, 0xD6, 0x02, 0x00, 0x00, 0x00, 0x20, 0x40, 0xC0, 
  0x43, 0x01, 0xC0, 0x28, 0x96, 0x00, 0x00, 0x00, 0x00, 0x00, 0x10, 0xC0, 
  0x07, 0x00, 0x02, 0x8A, 0xF9, 0x11, 0x10, 0x00, 0x00, 0x00, 0x00, 0xE0, 
  0x07, 0x00, 0x61, 0xD0, 0x66, 0x04, 0x00, 0x00, 0x08, 0x00, 0x08, 0xE0, 
  0x07, 0x20, 0x00, 0x46, 0x1B, 0x00, 0x01, 0x00, 0x00, 0x00, 0x00, 0xE2, 
  0x1F, 0x80, 0xA0, 0x41, 0x32, 0x10, 0x00, 0x00, 0x00, 0x00, 0x20, 0xF1, 
  0x0F, 0x08, 0x80, 0xFC, 0x0D, 0x40, 0x04, 0x00, 0x00, 0x00, 0x40, 0xF0, 
  0x1F, 0x08, 0x48, 0xB4, 0x0F, 0x01, 0x00, 0x00, 0x00, 0x20, 0x00, 0xF8, 
  0x3F, 0x00, 0x00, 0x4A, 0x02, 0x00, 0x00, 0x00, 0x00, 0x40, 0x01, 0xF8, 
  0x3F, 0x08, 0x00, 0xAF, 0x81, 0x00, 0x82, 0x00, 0x00, 0x00, 0x00, 0xFC, 
  0x7F, 0x10, 0x12, 0x98, 0x11, 0x40, 0x00, 0x00, 0x00, 0x00, 0x28, 0xFE, 
  0x7F, 0x00, 0x00, 0x6C, 0x00, 0x08, 0x00, 0x00, 0x00, 0x00, 0x00, 0xFE, 
  0xFF, 0x00, 0x40, 0x50, 0x00, 0x01, 0x41, 0x00, 0x00, 0x10, 0x00, 0xFF, 
  0xFF, 0x21, 0x04, 0x02, 0x08, 0x10, 0x00, 0x08, 0x00, 0x00, 0xC1, 0xFF, 
  0xFF, 0x41, 0x00, 0x00, 0x40, 0x00, 0x00, 0x80, 0x00, 0x04, 0x80, 0xFF, 
  0xFF, 0x03, 0x00, 0x00, 0x00, 0x00, 0x28, 0x00, 0x00, 0x00, 0xC0, 0xFF, 
  0xFF, 0x07, 0x10, 0x20, 0x04, 0x04, 0x00, 0x00, 0x40, 0x40, 0xE2, 0xFF, 
  0xFF, 0x2F, 0x11, 0x20, 0x00, 0x00, 0x00, 0x40, 0x40, 0x28, 0xF0, 0xFF, 
  0xFF, 0x1F, 0x00, 0x00, 0x01, 0x81, 0x01, 0x00, 0x00, 0x00, 0xF8, 0xFF, 
  0xFF, 0x3F, 0x00, 0x02, 0x00, 0x42, 0x40, 0x04, 0x04, 0x00, 0xFC, 0xFF, 
  0xFF, 0x7F, 0x02, 0x10, 0x10, 0x00, 0x10, 0x02, 0x02, 0x00, 0xFE, 0xFF, 
  0xFF, 0xFF, 0x40, 0x00, 0x00, 0x00, 0x00, 0x00, 0x10, 0x00, 0xFF, 0xFF, 
  0xFF, 0xFF, 0x21, 0x04, 0x84, 0x00, 0x04, 0x10, 0x00, 0xC1, 0xFF, 0xFF, 
  0xFF, 0xFF, 0x03, 0x00, 0x00, 0x00, 0x10, 0x00, 0x00, 0xC1, 0xFF, 0xFF, 
  0xFF, 0xFF, 0x0F, 0x40, 0x08, 0x24, 0x00, 0x08, 0x08, 0xF0, 0xFF, 0xFF, 
  0xFF, 0xFF, 0x1F, 0x08, 0x02, 0x28, 0x08, 0x20, 0x20, 0xF8, 0xFF, 0xFF, 
  0xFF, 0xFF, 0x7F, 0x00, 0x00, 0x00, 0x01, 0x40, 0x00, 0xFE, 0xFF, 0xFF, 
  0xFF, 0xFF, 0xFF, 0x01, 0x40, 0x00, 0x00, 0x00, 0x00, 0xFF, 0xFF, 0xFF, 
  0xFF, 0xFF, 0xFF, 0x43, 0x00, 0x00, 0x40, 0x01, 0xC2, 0xFF, 0xFF, 0xFF, 
  0xFF, 0xFF, 0xFF, 0x0F, 0x18, 0x40, 0x00, 0x00, 0xF0, 0xFF, 0xFF, 0xFF, 
  0xFF, 0xFF, 0xFF, 0x7F, 0x00, 0x01, 0x48, 0x11, 0xFE, 0xFF, 0xFF, 0xFF, 
  0xFF, 0xFF, 0xFF, 0xFF, 0x03, 0x02, 0x00, 0xC0, 0xFF, 0xFF, 0xFF, 0xFF, 
  0xFF, 0xFF, 0xFF, 0xFF, 0x1F, 0x80, 0x00, 0xF8, 0xFF, 0xFF, 0xFF, 0xFF, 
  };
